<?xml version="1.0" standalone="no"?>
<!DOCTYPE svg PUBLIC "-//W3C//DTD SVG 20010904//EN"
 "http://www.w3.org/TR/2001/REC-SVG-20010904/DTD/svg10.dtd">
<svg version="1.0" xmlns="http://www.w3.org/2000/svg"
 width="1024.000000pt" height="1024.000000pt" viewBox="0 0 1024.000000 1024.000000"
 preserveAspectRatio="xMidYMid meet">

<g transform="translate(0.000000,1024.000000) scale(0.100000,-0.100000)"
fill="#ffffff" stroke="none">
<path d="M4493 5850 c-77 -39 -74 -25 -71 -433 l3 -362 42 -85 c78 -158 132
-240 166 -255 44 -18 84 -8 111 29 41 55 145 249 166 310 18 55 20 84 20 380
0 235 -4 327 -13 345 -6 13 -29 38 -50 55 l-39 31 -146 3 c-133 2 -151 1 -189
-18z m285 -367 l2 -232 -109 0 -110 0 -1 235 -1 235 108 -3 108 -3 3 -232z
m-56 -390 c40 -36 6 -113 -51 -113 -38 0 -69 27 -77 67 -5 27 -2 33 22 47 38
20 83 20 106 -1z"/>
<path d="M2142 5734 c-122 -32 -223 -101 -300 -203 -100 -133 -137 -356 -87
-541 90 -336 467 -497 788 -337 101 50 209 152 226 212 26 95 -41 175 -146
175 -55 0 -82 -15 -137 -77 -80 -89 -200 -113 -309 -60 -95 47 -139 128 -140
262 -2 151 61 256 174 289 108 32 183 11 279 -79 73 -69 99 -80 160 -72 55 7
96 40 116 92 26 68 9 111 -73 191 -75 73 -193 138 -282 154 -76 14 -206 11
-269 -6z"/>
<path d="M3249 5727 c-98 -30 -161 -67 -231 -138 -210 -214 -210 -619 0 -836
206 -211 572 -213 781 -4 69 69 102 124 137 227 22 66 27 97 27 189 1 181 -43
301 -154 420 -137 146 -357 202 -560 142z m238 -272 c60 -18 117 -70 147 -134
30 -66 30 -236 0 -301 -59 -126 -202 -176 -329 -116 -100 47 -139 122 -140
266 0 78 4 104 23 145 58 126 169 178 299 140z"/>
<path d="M5139 5711 l-24 -19 1 -517 c1 -467 3 -518 18 -533 15 -15 56 -17
392 -17 l376 0 19 24 c16 19 19 40 19 115 0 141 11 136 -283 136 l-237 0 0 68
0 67 200 -3 200 -3 26 26 c25 25 26 29 21 122 -6 138 3 133 -252 133 l-203 0
2 68 1 67 248 5 c297 6 277 -4 277 141 0 149 29 139 -415 139 -342 0 -364 -1
-386 -19z"/>
<path d="M6081 5709 c-21 -23 -21 -27 -21 -535 l0 -513 28 -21 c26 -21 32 -22
297 -18 288 5 321 10 425 63 105 54 193 162 231 284 29 93 36 254 15 351 -40
188 -144 306 -335 379 -64 24 -76 25 -342 29 l-277 4 -21 -23z m524 -270 c26
-7 63 -28 89 -50 62 -55 79 -111 74 -237 -4 -116 -28 -169 -96 -217 -43 -29
-47 -30 -178 -33 l-134 -4 0 276 0 276 101 0 c55 0 120 -5 144 -11z"/>
<path d="M7195 5705 l-25 -24 0 -506 0 -506 25 -24 c22 -23 31 -25 125 -25 94
0 103 2 125 25 l25 24 0 510 0 510 -26 20 c-23 18 -41 21 -126 21 -92 0 -101
-2 -123 -25z"/>
<path d="M7596 5709 c-25 -20 -26 -24 -26 -124 0 -100 1 -104 26 -124 24 -19
39 -21 153 -19 l126 1 5 -391 c6 -460 -4 -425 121 -431 103 -4 145 4 161 32
10 16 14 123 18 405 l5 383 133 2 c170 3 172 4 172 144 0 86 -2 96 -25 118
l-24 25 -409 0 c-399 0 -410 -1 -436 -21z"/>
<path d="M4004 4570 c-65 -26 -83 -109 -35 -162 l29 -33 414 -3 c227 -1 424 0
436 3 72 18 95 109 43 167 l-29 33 -419 2 c-230 1 -428 -2 -439 -7z"/>
</g>
</svg>
